<svg viewBox="0 0 100 100" xmlns="http://www.w3.org/2000/svg">
  <defs>
    <!-- Main gradient like the original image -->
    <linearGradient id="mainGrad" x1="0%" y1="0%" x2="100%" y2="100%">
      <stop offset="0%" style="stop-color:#00BFFF"/>
      <stop offset="50%" style="stop-color:#FF1493"/>
      <stop offset="100%" style="stop-color:#FFD700"/>
    </linearGradient>
    
    <!-- Inner gradient -->
    <linearGradient id="innerGrad" x1="100%" y1="0%" x2="0%" y2="100%">
      <stop offset="0%" style="stop-color:#00CED1"/>
      <stop offset="50%" style="stop-color:#FF69B4"/>
      <stop offset="100%" style="stop-color:#FFFF00"/>
    </linearGradient>
  </defs>
  
  <!-- Background with soft gradient -->
  <circle cx="50" cy="50" r="48" fill="#F8F9FA" opacity="0.9"/>
  
  <!-- Main letter K with 3D effect like original -->
  <g transform="translate(50, 50)">
    <!-- Shadow -->
    <path d="M -13 -18 L -13 18 L -6 18 L -6 2 L 2 18 L 11 18 L -1 0 L 13 -18 L 4 -18 L -6 -6 L -6 -18 Z" 
          fill="#000000" opacity="0.1" transform="translate(2, 2)"/>
    
    <!-- Main K shape -->
    <path d="M -15 -20 L -15 20 L -8 20 L -8 2 L 0 20 L 9 20 L -3 0 L 11 -20 L 2 -20 L -8 -8 L -8 -20 Z" 
          fill="url(#mainGrad)" stroke="url(#innerGrad)" stroke-width="1"/>
    
    <!-- Inner highlight -->
    <path d="M -12 -17 L -12 17 L -10 17 L -10 -2 L -2 12 L 3 12 L -5 2 L 6 -17 L 1 -17 L -10 -12 L -10 -17 Z" 
          fill="url(#innerGrad)" opacity="0.6"/>
  </g>
  
  <!-- Decorative elements like original -->
  <g opacity="0.7">
    <!-- Yellow star top left -->
    <path d="M 20 20 L 22 16 L 24 20 L 28 18 L 24 22 L 22 26 L 20 22 L 16 18 Z" 
          fill="#FFD700"/>
    <!-- Pink star top right -->
    <path d="M 75 25 L 77 21 L 79 25 L 83 23 L 79 27 L 77 31 L 75 27 L 71 23 Z" 
          fill="#FF1493"/>
    <!-- Blue dot bottom -->
    <circle cx="80" cy="80" r="2" fill="#00BFFF"/>
  </g>
  
  <!-- Subtle cloud element -->
  <g opacity="0.3">
    <ellipse cx="20" cy="75" rx="6" ry="3" fill="#87CEEB"/>
    <ellipse cx="25" cy="73" rx="4" ry="2" fill="#87CEEB"/>
  </g>
</svg>
