<svg viewBox="0 0 200 200" xmlns="http://www.w3.org/2000/svg">
  <!-- Background circle -->
  <circle cx="100" cy="100" r="90" fill="url(#bgGradient)" opacity="0.1"/>
  
  <!-- Main gradient definitions -->
  <defs>
    <linearGradient id="bgGradient" x1="0%" y1="0%" x2="100%" y2="100%">
      <stop offset="0%" style="stop-color:#E0E7FF"/>
      <stop offset="50%" style="stop-color:#F3E8FF"/>
      <stop offset="100%" style="stop-color:#FEF3E2"/>
    </linearGradient>
    
    <linearGradient id="kGradient" x1="0%" y1="0%" x2="100%" y2="100%">
      <stop offset="0%" style="stop-color:#60A5FA"/>
      <stop offset="30%" style="stop-color:#EC4899"/>
      <stop offset="60%" style="stop-color:#FBBF24"/>
      <stop offset="100%" style="stop-color:#EC4899"/>
    </linearGradient>
    
    <linearGradient id="kInner" x1="0%" y1="0%" x2="100%" y2="100%">
      <stop offset="0%" style="stop-color:#BFDBFE"/>
      <stop offset="50%" style="stop-color:#F3E8FF"/>
      <stop offset="100%" style="stop-color:#FEF3C7"/>
    </linearGradient>
  </defs>
  
  <!-- Decorative stars -->
  <g opacity="0.8">
    <!-- Star 1 -->
    <polygon points="40,50 44,38 48,50 60,46 48,54 44,66 40,54 28,46" 
             fill="#FBBF24" transform="rotate(15 44 52)"/>
    <!-- Star 2 -->
    <polygon points="150,40 154,28 158,40 170,36 158,44 154,56 150,44 138,36" 
             fill="#FBBF24" transform="rotate(-15 154 42)"/>
    <!-- Star 3 -->
    <polygon points="160,160 162,154 164,160 170,158 164,162 162,168 160,162 154,158" 
             fill="#EC4899"/>
  </g>
  
  <!-- Cloud decorations -->
  <g opacity="0.6">
    <!-- Cloud 1 -->
    <ellipse cx="35" cy="140" rx="12" ry="8" fill="#BFDBFE"/>
    <ellipse cx="42" cy="136" rx="8" ry="6" fill="#BFDBFE"/>
    <ellipse cx="48" cy="140" rx="10" ry="7" fill="#BFDBFE"/>
    
    <!-- Cloud 2 (smaller) -->
    <ellipse cx="165" cy="110" rx="8" ry="5" fill="#BFDBFE"/>
    <ellipse cx="170" cy="108" rx="6" ry="4" fill="#BFDBFE"/>
    <ellipse cx="174" cy="110" rx="7" ry="5" fill="#BFDBFE"/>
  </g>
  
  <!-- Main letter K -->
  <g transform="translate(100, 100)">
    <!-- K outer stroke -->
    <path d="M -35 -45 L -35 45 L -20 45 L -20 5 L 5 45 L 25 45 L -5 0 L 30 -45 L 8 -45 L -20 -10 L -20 -45 Z" 
          fill="url(#kGradient)" 
          stroke="#FFFFFF" 
          stroke-width="3"/>
    
    <!-- K inner highlight -->
    <path d="M -30 -40 L -30 40 L -25 40 L -25 0 L 0 35 L 15 35 L -10 -5 L 20 -40 L 5 -40 L -25 -15 L -25 -40 Z" 
          fill="url(#kInner)" 
          opacity="0.7"/>
    
    <!-- Yellow accent circles -->
    <circle cx="20" cy="-25" r="8" fill="#FBBF24" opacity="0.8"/>
    <circle cx="-15" cy="25" r="6" fill="#FBBF24" opacity="0.6"/>
  </g>
  
  <!-- Additional decorative elements -->
  <g opacity="0.4">
    <!-- Small dots -->
    <circle cx="70" cy="170" r="3" fill="#EC4899"/>
    <circle cx="130" cy="30" r="2" fill="#60A5FA"/>
    <circle cx="30" cy="80" r="2" fill="#FBBF24"/>
  </g>
</svg>
